HIERARCHY
ROOT Hips
{
	OFFSET 0.000000 0.000000 0.000000
	CHANNELS 6 Xposition Yposition Zposition Zrotation Yrotation Xrotation 
	JOINT LHipJoint
	{
		OFFSET 0.000000 0.000000 0.000000
		CHANNELS 3 Zrotation Yrotation Xrotation
		JOINT LeftUpLeg
		{
			OFFSET 1.363060 -1.794630 0.839290
			CHANNELS 3 Zrotation Yrotation Xrotation
			JOINT LeftLeg
			{
				OFFSET 2.448110 -6.726130 0.000000
				CHANNELS 3 Zrotation Yrotation Xrotation
				JOINT LeftFoot
				{
					OFFSET 2.562200 -7.039590 0.000000
					CHANNELS 3 Zrotation Yrotation Xrotation
					JOINT LeftToeBase
					{
						OFFSET 0.157640 -0.433110 2.322550
						CHANNELS 3 Zrotation Yrotation Xrotation
						End Site
						{
							OFFSET 0.000000 0.000000 0.000000
						}
					}
				}
			}
		}
	}
	JOINT RHipJoint
	{
		OFFSET 0.000000 0.000000 0.000000
		CHANNELS 3 Zrotation Yrotation Xrotation
		JOINT RightUpLeg
		{
			OFFSET -1.305520 -1.794630 0.839290
			CHANNELS 3 Zrotation Yrotation Xrotation
			JOINT RightLeg
			{
				OFFSET -2.542530 -6.985550 0.000000
				CHANNELS 3 Zrotation Yrotation Xrotation
				JOINT RightFoot
				{
					OFFSET -2.568260 -7.056230 0.000000
					CHANNELS 3 Zrotation Yrotation Xrotation
					JOINT RightToeBase
					{
						OFFSET -0.164730 -0.452590 2.363150
						CHANNELS 3 Zrotation Yrotation Xrotation
						End Site
						{
							OFFSET 0.000000 0.000000 0.000000
						}
					}
				}
			}
		}
	}
	JOINT LowerBack
	{
		OFFSET 0.000000 0.000000 0.000000
		CHANNELS 3 Zrotation Yrotation Xrotation
		JOINT Spine
		{
			OFFSET 0.028270 2.035590 -0.193380
			CHANNELS 3 Zrotation Yrotation Xrotation
			JOINT Spine1
			{
				OFFSET 0.056720 2.048850 -0.042750
				CHANNELS 3 Zrotation Yrotation Xrotation
				JOINT Neck
				{
					OFFSET 0.000000 0.000000 0.000000
					CHANNELS 3 Zrotation Yrotation Xrotation
					JOINT Neck1
					{
						OFFSET -0.054170 1.746240 0.172020
						CHANNELS 3 Zrotation Yrotation Xrotation
						JOINT Head
						{
							OFFSET 0.104070 1.761360 -0.123970
							CHANNELS 3 Zrotation Yrotation Xrotation
							End Site
							{
								OFFSET 0.000000 0.000000 0.000000
							}
						}
					}
				}
				JOINT LeftShoulder
				{
					OFFSET 0.000000 0.000000 0.000000
					CHANNELS 3 Zrotation Yrotation Xrotation
					JOINT LeftArm
					{
						OFFSET 3.362410 1.200890 -0.311210
						CHANNELS 3 Zrotation Yrotation Xrotation
						JOINT LeftForeArm
						{
							OFFSET 4.983000 -0.000000 -0.000000
							CHANNELS 3 Zrotation Yrotation Xrotation
							JOINT LeftHand
							{
								OFFSET 3.483560 -0.000000 -0.000000
								CHANNELS 3 Zrotation Yrotation Xrotation
								JOINT LeftFingerBase
								{
									OFFSET 0.000000 0.000000 0.000000
									CHANNELS 3 Zrotation Yrotation Xrotation
									JOINT LeftHandIndex1
									{
										OFFSET 0.715260 -0.000000 -0.000000
										CHANNELS 3 Zrotation Yrotation Xrotation
										End Site
										{
											OFFSET 0.000000 0.000000 0.000000
										}
									}
								}
								JOINT LThumb
								{
									OFFSET 0.000000 0.000000 0.000000
									CHANNELS 3 Zrotation Yrotation Xrotation
									End Site
									{
										OFFSET 0.000000 0.000000 0.000000
									}
								}
							}
						}
					}
				}
				JOINT RightShoulder
				{
					OFFSET 0.000000 0.000000 0.000000
					CHANNELS 3 Zrotation Yrotation Xrotation
					JOINT RightArm
					{
						OFFSET -3.136600 1.374050 -0.404650
						CHANNELS 3 Zrotation Yrotation Xrotation
						JOINT RightForeArm
						{
							OFFSET -5.241900 -0.000000 -0.000000
							CHANNELS 3 Zrotation Yrotation Xrotation
							JOINT RightHand
							{
								OFFSET -3.444170 -0.000000 -0.000000
								CHANNELS 3 Zrotation Yrotation Xrotation
								JOINT RightFingerBase
								{
									OFFSET 0.000000 0.000000 0.000000
									CHANNELS 3 Zrotation Yrotation Xrotation
									JOINT RightHandIndex1
									{
										OFFSET -0.622530 -0.000000 -0.000000
										CHANNELS 3 Zrotation Yrotation Xrotation
										End Site
										{
											OFFSET 0.000000 0.000000 0.000000
										}
									}
								}
								JOINT RThumb
								{
									OFFSET 0.000000 0.000000 0.000000
									CHANNELS 3 Zrotation Yrotation Xrotation
									End Site
									{
										OFFSET 0.000000 0.000000 0.000000
									}
								}
							}
						}
					}
				}
			}
		}
	}
}
MOTION
Frames: 5
Frame Time: 0.008333
27.952125 17.594721 -0.296882 89.406687 -88.848521 -83.669697 5.333683 2.092093 -1.146152 -30.024955 -3.294105 -12.687618 1.411209 10.665539 31.156560 -0.128646 4.766265 -0.535305 0.479400 -4.440100 -12.318300 -9.442218 -3.473189 -2.089414 22.216561 8.384457 -12.756372 -2.544433 -11.083309 33.080313 0.980291 -7.768077 -13.021401 -1.116000 6.711200 -18.862600 -6.473992 3.195455 2.250469 0.639034 3.685179 -3.976513 5.558166 2.495147 -7.222204 -11.282017 -6.816985 -5.433161 7.534773 -9.263989 4.766596 4.917000 -4.692100 1.610300 2.123743 -11.970482 2.489744 -95.864327 11.275180 -20.140104 42.581185 -46.267828 -21.102083 1.942847 1.741651 80.701117 12.366545 39.979179 8.510700 -7.125000 0.000000 0.000000 -27.341500 66.355400 -14.542800 -2.482378 11.040393 3.431128 91.456125 -6.355078 9.518744 -31.729438 44.628739 -12.688527 -2.221341 1.538138 7.692686 -15.009362 49.959367 -9.579600 7.125000 0.000000 0.000000 13.237200 19.079300 17.203300 
27.967640 17.584304 -0.287573 83.345494 -88.760949 -78.120496 5.375986 2.186757 -1.101551 -30.231159 -3.389125 -12.194442 1.427297 10.671572 31.220351 -0.181456 4.872657 -0.602960 0.470400 -4.398700 -12.201000 -9.377561 -3.413084 -2.189944 22.074543 7.998016 -12.279603 -2.596416 -11.073763 33.233036 0.953055 -7.667387 -13.046974 -1.104600 6.677900 -18.764400 -6.438535 3.170297 2.777004 0.625134 3.655252 -3.909821 5.427501 2.481618 -7.217533 -11.539423 -6.864519 -5.239331 7.770943 -9.340713 4.615545 5.101800 -4.729700 1.545800 1.978246 -11.941880 2.535928 -96.018964 11.098068 -20.520595 49.802381 -49.255630 -26.557693 1.881799 1.488385 94.879652 5.382161 39.701966 4.338100 -7.125000 0.000000 0.000000 -34.967800 64.716300 -17.685100 -2.468740 11.013220 3.438268 91.527964 -6.276722 9.622156 -31.619104 44.582665 -12.646439 -2.224142 1.544985 7.474122 -15.022762 50.181214 -9.619500 7.125000 0.000000 0.000000 13.273100 19.283700 17.280300 
27.987365 17.572668 -0.279816 78.210663 -88.734150 -73.518772 5.400485 2.268280 -1.057942 -30.324604 -3.454591 -11.764327 1.461279 10.703372 31.367663 -0.221129 4.952647 -0.699682 0.473100 -4.411400 -12.237100 -9.337970 -3.363237 -2.279305 22.055010 7.709816 -11.760911 -2.636784 -11.056621 33.352912 0.941639 -7.629964 -13.095878 -1.084900 6.619900 -18.594100 -6.338763 3.159144 3.412053 0.623421 3.638554 -3.860853 5.307037 2.480478 -7.335477 -11.809559 -6.902916 -5.035538 8.002053 -9.404964 4.476706 5.283500 -4.762500 1.496000 1.845031 -11.935033 2.552026 -96.151013 11.063100 -20.216912 58.176220 -51.721112 -33.370728 1.795074 1.292512 107.108306 -1.688154 38.410720 0.053500 -7.125000 0.000000 0.000000 -40.957200 62.303100 -18.887600 -2.455295 11.010005 3.447533 91.609107 -6.177029 9.664549 -31.455787 44.486907 -12.577194 -2.230898 1.548542 7.199794 -15.088226 50.373784 -9.694800 7.125000 0.000000 0.000000 13.282700 19.472900 17.319300 
28.004764 17.560478 -0.272391 73.414136 -88.716384 -69.235381 5.418918 2.347365 -1.010315 -30.393060 -3.529550 -11.336932 1.493293 10.730862 31.503426 -0.254506 5.018711 -0.777569 0.453000 -4.318000 -11.973000 -9.304317 -3.317723 -2.360781 22.061879 7.419848 -11.272136 -2.677711 -11.043856 33.481586 0.931242 -7.597218 -13.148085 -1.086800 6.625700 -18.611000 -6.190571 3.142025 4.033216 0.605246 3.612773 -3.829151 5.192976 2.469214 -7.477821 -12.190523 -6.916587 -4.985985 8.334422 -9.449394 4.532611 5.527500 -4.793500 1.583500 1.867999 -11.968312 2.561187 -96.273157 10.913367 -20.237933 55.982413 -51.256553 -31.465320 1.704245 1.735147 102.955090 -7.906645 37.362327 -3.454300 -7.125000 0.000000 0.000000 -45.520000 60.225400 -19.207800 -2.523016 11.016477 3.438554 91.718858 -6.046471 9.496444 -31.149154 44.270800 -12.409090 -2.211880 1.574514 7.441257 -14.654950 50.391026 -9.360700 7.125000 0.000000 0.000000 13.461200 19.371700 17.548400 
28.020279 17.547845 -0.263304 67.968535 -88.665229 -64.276559 5.429385 2.431727 -0.954558 -30.484301 -3.676989 -10.905902 1.523978 10.762911 31.642371 -0.301700 5.115518 -0.883740 0.435800 -4.236100 -11.741800 -9.276281 -3.265873 -2.445522 22.042158 7.108634 -10.796935 -2.723779 -11.032616 33.625712 0.909732 -7.528109 -13.215979 -1.055200 6.531600 -18.334900 -5.971586 3.005548 4.604765 0.599848 3.432126 -3.798736 5.077496 2.377654 -7.553703 -12.735619 -6.846567 -5.035879 8.718005 -9.379985 4.693212 5.833900 -4.772500 1.736800 1.869810 -12.005182 2.550836 -96.461328 10.646808 -21.168206 55.090170 -51.041542 -30.703542 1.540183 2.108911 100.446923 -14.933336 35.540767 -7.257800 -7.125000 0.000000 0.000000 -49.882000 57.613200 -18.382600 -2.587699 11.005673 3.428153 91.686486 -5.910831 9.706920 -30.805806 44.033591 -12.210285 -2.204078 1.592361 7.662497 -14.339787 50.253850 -9.093400 7.125000 0.000000 0.000000 13.565800 19.157600 17.660900 
